<?xml version="1.0" encoding="utf-8"?>
<!-- Generator: Adobe Illustrator 24.0.1, SVG Export Plug-In . SVG Version: 6.00 Build 0)  -->
<svg version="1.1" id="Camada_1" xmlns="http://www.w3.org/2000/svg" xmlns:xlink="http://www.w3.org/1999/xlink" x="0px" y="0px"
	 viewBox="0 0 1440 569" style="enable-background:new 0 0 1440 569;" xml:space="preserve">
<style type="text/css">
	.st0{fill:none;}
	.st1{display:none;fill:#161730;}
	.st2{opacity:0.35;fill:#BCE1E8;}
</style>
<path class="st0" d="M0,0"/>
<rect y="0" class="st1" width="1440" height="569"/>
<polygon class="st2" points="51.3,478.8 53.9,472 55.5,479.2 61.8,480.2 55.8,482.7 54.2,488.9 51.3,482.3 44.7,481.3 "/>
<polygon class="st2" points="1175.2,165.4 1177.9,158.6 1179.5,165.8 1185.8,166.8 1179.7,169.2 1178.2,175.4 1175.2,168.8 
	1168.7,167.9 "/>
<polygon class="st2" points="911.6,267.8 914.3,261 915.9,268.2 922.1,269.2 916.1,271.7 914.6,277.8 911.6,271.3 905.1,270.3 "/>
<polygon class="st2" points="1066.2,267.8 1068.8,261 1070.4,268.2 1076.7,269.2 1070.7,271.7 1069.2,277.8 1066.2,271.3 
	1059.6,270.3 "/>
<polygon class="st2" points="1360.2,73.4 1362.9,66.6 1364.5,73.8 1370.7,74.8 1364.7,77.2 1363.2,83.4 1360.2,76.8 1353.7,75.9 "/>
<polygon class="st2" points="606.5,352.5 609.2,345.7 610.8,352.9 617.1,353.9 611,356.4 609.5,362.5 606.6,355.9 600,355 "/>
<polygon class="st2" points="636.2,525.2 637.7,521.3 638.6,525.4 642.2,526 638.8,527.4 637.9,530.9 636.2,527.2 632.5,526.6 "/>
<polygon class="st2" points="564.8,530 566.3,526.1 567.2,530.2 570.8,530.8 567.3,532.2 566.5,535.8 564.8,532 561,531.5 "/>
<polygon class="st2" points="335.6,393.5 337.1,389.6 338,393.8 341.6,394.3 338.2,395.7 337.3,399.3 335.6,395.5 331.9,395 "/>
<polygon class="st2" points="740.9,403.2 742.4,399.3 743.3,403.4 746.9,404 743.5,405.4 742.6,408.9 740.9,405.1 737.2,404.6 "/>
<polygon class="st2" points="777.1,82.5 778.6,78.6 779.6,82.7 783.2,83.3 779.7,84.7 778.8,88.2 777.1,84.5 773.4,83.9 "/>
<polygon class="st2" points="941.3,479.5 942.8,475.6 943.7,479.7 947.3,480.3 943.9,481.7 943,485.2 941.3,481.5 937.6,480.9 "/>
<polygon class="st2" points="1058.5,534.8 1060,530.9 1060.9,535.1 1064.5,535.6 1061.1,537 1060.2,540.6 1058.5,536.8 
	1054.8,536.3 "/>
<polygon class="st2" points="812.5,196.4 814,192.5 814.9,196.6 818.5,197.2 815.1,198.6 814.2,202.1 812.5,198.3 808.7,197.8 "/>
<polygon class="st2" points="965.5,104.9 967.1,101 968,105.1 971.6,105.7 968.1,107.1 967.2,110.6 965.5,106.9 961.8,106.3 "/>
<polygon class="st2" points="137.7,21 139.2,17.1 140.1,21.2 143.7,21.8 140.3,23.2 139.4,26.7 137.7,22.9 134,22.4 "/>
<polygon class="st2" points="1151.1,25.8 1152.7,21.9 1153.6,26 1157.2,26.6 1153.7,28 1152.8,31.5 1151.2,27.7 1147.4,27.2 "/>
<polygon class="st2" points="1247.3,324.8 1248.8,320.9 1249.7,325.1 1253.3,325.6 1249.9,327 1249,330.6 1247.3,326.8 
	1243.5,326.3 "/>
<polygon class="st2" points="1398.9,174.5 1400.4,170.6 1401.3,174.7 1404.9,175.3 1401.5,176.7 1400.6,180.2 1398.9,176.5 
	1395.2,175.9 "/>
<polygon class="st2" points="484.1,212.8 485.6,208.9 486.6,213 490.1,213.6 486.7,215 485.8,218.5 484.1,214.8 480.4,214.2 "/>
<polygon class="st2" points="345.4,255.3 346.9,251.4 347.8,255.5 351.4,256.1 347.9,257.5 347.1,261 345.4,257.2 341.6,256.7 "/>
<polygon class="st2" points="219.8,222.4 221.3,218.5 222.2,222.6 225.8,223.2 222.4,224.6 221.5,228.2 219.8,224.4 216.1,223.8 "/>
<polygon class="st2" points="3.7,65.7 5.3,61.8 6.2,65.9 9.8,66.5 6.3,67.9 5.4,71.4 3.8,67.6 0,67.1 "/>
<polygon class="st2" points="111,467.2 112.5,463.3 113.4,467.4 117,468 113.6,469.4 112.7,472.9 111,469.1 107.3,468.6 "/>
<polygon class="st2" points="160.2,157 162.9,150.2 164.5,157.4 170.7,158.4 164.7,160.8 163.2,167 160.2,160.4 153.7,159.5 "/>
<polygon class="st2" points="288.6,95.8 291.3,89 292.9,96.2 299.2,97.2 293.1,99.6 291.6,105.8 288.7,99.2 282.1,98.3 "/>
<polygon class="st2" points="606.5,148.5 609.2,141.7 610.8,148.9 617.1,150 611,152.4 609.5,158.6 606.6,152 600,151 "/>
<polygon class="st2" points="1103.6,470.4 1106.3,463.6 1107.8,470.8 1114.1,471.8 1108.1,474.3 1106.6,480.4 1103.6,473.9 
	1097.1,472.9 "/>
<polygon class="st2" points="1338.5,505.1 1341.1,498.3 1342.7,505.5 1349,506.6 1343,509 1341.5,515.2 1338.5,508.6 1331.9,507.6 
	"/>
<polygon class="st2" points="393.1,462 395.8,455.2 397.4,462.4 403.6,463.4 397.6,465.8 396.1,472 393.1,465.4 386.6,464.5 "/>
<polygon class="st2" points="68.3,319.3 71,312.5 72.6,319.7 78.9,320.7 72.8,323.2 71.3,329.4 68.4,322.8 61.8,321.8 "/>
<polygon class="st2" points="1321.4,360.9 1324.1,354.1 1325.7,361.3 1331.9,362.3 1325.9,364.8 1324.4,370.9 1321.4,364.4 
	1314.9,363.4 "/>
</svg>
